<?xml version="1.0" encoding="UTF-8" standalone="no"?>
<!DOCTYPE svg PUBLIC "-//W3C//DTD SVG 1.1//EN" "http://www.w3.org/Graphics/SVG/1.1/DTD/svg11.dtd">
<svg width="100%" height="100%" viewBox="0 0 50 50" version="1.1" xmlns="http://www.w3.org/2000/svg" xmlns:xlink="http://www.w3.org/1999/xlink" xml:space="preserve" xmlns:serif="http://www.serif.com/" style="fill-rule:evenodd;clip-rule:evenodd;stroke-linejoin:round;stroke-miterlimit:2;">
    <g transform="matrix(1,0,0,1,-201,0)">
        <g id="ArtBoard3" transform="matrix(1,0,0,1,-315.333,0)">
            <rect x="516.333" y="0" width="50" height="50" style="fill:none;"/>
            <g transform="matrix(2.08333,0,0,2.08333,516.333,0.5)">
                <path d="M24,7.192C24,11.853 18.43,16.619 12,23C11.149,22.156 10.323,21.35 9.514,20.56L10.929,19.145L12,20.192C17.256,15.043 22,10.634 22,7.192C22,4.319 19.784,3.01 17.726,3.01C14.469,3.01 12.75,6.485 12,8.031C11.253,6.491 9.516,3.001 6.28,3C3.965,2.999 2,4.516 2,7.192C2,8.59 2.794,10.152 4.077,11.855L2.646,13.286C1.007,11.16 0,9.166 0,7.192C0,3.187 3.098,1 6.281,1C8.478,1 10.715,2.042 12,4.248C13.279,2.053 15.521,1.01 17.726,1.01C20.903,1.01 24,3.181 24,7.192ZM13.461,14.493L5.493,22.458C5.154,22.799 4.671,23 4.105,22.999C3.303,22.999 2.333,22.597 1.359,21.623C0.4,20.665 0.001,19.701 0.001,18.902C0.001,18.337 0.202,17.851 0.544,17.51L8.511,9.542C8.853,9.2 9.337,8.999 9.903,8.999C10.703,9 11.667,9.397 12.627,10.357C13.6,11.33 14.003,12.3 14.001,13.103C14.001,13.668 13.803,14.15 13.461,14.493ZM11.746,12.906C11.517,13.134 11.517,13.503 11.746,13.731C11.974,13.958 12.343,13.959 12.57,13.731C12.798,13.502 12.798,13.133 12.57,12.906C12.342,12.678 11.974,12.679 11.746,12.906ZM10.508,14.144C10.281,14.371 10.279,14.74 10.508,14.969C10.736,15.197 11.106,15.196 11.333,14.969C11.562,14.741 11.562,14.371 11.333,14.144C11.104,13.916 10.736,13.916 10.508,14.144ZM10.508,11.668C10.281,11.897 10.28,12.266 10.507,12.494C10.736,12.722 11.105,12.722 11.333,12.493C11.56,12.266 11.562,11.897 11.332,11.669C11.105,11.441 10.736,11.441 10.508,11.668ZM9.271,12.906C9.043,13.134 9.042,13.504 9.269,13.731C9.498,13.96 9.868,13.958 10.095,13.731C10.322,13.503 10.323,13.135 10.094,12.906C9.868,12.679 9.499,12.679 9.271,12.906ZM9.271,10.431C9.043,10.659 9.042,11.029 9.271,11.256C9.497,11.484 9.869,11.484 10.095,11.256C10.323,11.029 10.322,10.659 10.095,10.432C9.868,10.204 9.499,10.204 9.271,10.431ZM8.034,11.668C7.806,11.896 7.805,12.266 8.033,12.494C8.26,12.721 8.632,12.721 8.859,12.494C9.086,12.266 9.085,11.897 8.859,11.669C8.631,11.441 8.261,11.441 8.034,11.668ZM2.258,19.093C2.486,18.865 2.486,18.496 2.258,18.268C2.029,18.04 1.66,18.04 1.433,18.268C1.204,18.496 1.204,18.865 1.433,19.093C1.661,19.32 2.029,19.321 2.258,19.093ZM3.495,17.856C3.723,17.628 3.723,17.258 3.495,17.03C3.266,16.802 2.897,16.802 2.67,17.03C2.443,17.258 2.442,17.627 2.67,17.855C2.897,18.083 3.267,18.083 3.495,17.856ZM3.495,20.331C3.723,20.103 3.723,19.733 3.495,19.506C3.268,19.278 2.897,19.277 2.67,19.506C2.442,19.733 2.443,20.104 2.671,20.33C2.897,20.558 3.267,20.559 3.495,20.331ZM4.732,19.094C4.96,18.866 4.96,18.496 4.732,18.268C4.505,18.041 4.134,18.04 3.907,18.268C3.679,18.496 3.68,18.866 3.907,19.093C4.135,19.32 4.505,19.321 4.732,19.094ZM4.732,21.569C4.96,21.34 4.96,20.971 4.732,20.743C4.504,20.515 4.134,20.515 3.907,20.743C3.679,20.971 3.679,21.34 3.907,21.567C4.135,21.796 4.505,21.796 4.732,21.569ZM5.972,20.33C6.198,20.104 6.198,19.734 5.97,19.506C5.742,19.278 5.373,19.278 5.145,19.506C4.917,19.734 4.917,20.103 5.145,20.331C5.373,20.559 5.742,20.559 5.972,20.33ZM10.161,16.142L6.86,12.843L3.843,15.859L7.145,19.158L10.161,16.142Z" style="fill:rgb(93,113,26);fill-rule:nonzero;"/>
            </g>
        </g>
    </g>
</svg>
