<?xml version="1.0" encoding="UTF-8" standalone="no"?>
<!DOCTYPE svg PUBLIC "-//W3C//DTD SVG 1.1//EN" "http://www.w3.org/Graphics/SVG/1.1/DTD/svg11.dtd">
<svg width="100%" height="100%" viewBox="0 0 50 50" version="1.1" xmlns="http://www.w3.org/2000/svg" xmlns:xlink="http://www.w3.org/1999/xlink" xml:space="preserve" xmlns:serif="http://www.serif.com/" style="fill-rule:evenodd;clip-rule:evenodd;stroke-linejoin:round;stroke-miterlimit:2;">
    <g transform="matrix(1,0,0,1,-116,0)">
        <g id="ArtBoard2" transform="matrix(1,0,0,1,-142.333,0)">
            <rect x="258.333" y="0" width="50" height="50" style="fill:none;"/>
            <g transform="matrix(2.08333,0,0,2.08333,258.333,0.5)">
                <path d="M13.7,4.054C13.346,4.622 12.718,5 12,5C10.896,5 10,4.104 10,3C10,1.896 10.896,1 12,1C12.759,1 13.42,1.424 13.759,2.047C16.349,2.342 18.145,3.833 17.992,6.286C17.807,9.145 14.698,13.905 11.991,15.976C11.894,17.049 11.282,18.208 10.197,18.884C11.19,20.493 12.733,21.169 14.415,20.971C16.044,20.78 17.559,19.605 18.375,18.278C17.539,17.637 17,16.631 17,15.5C17,13.568 18.568,11.999 20.5,11.999C22.431,11.999 24,13.568 24,15.5C24,17.436 22.403,19.101 20.272,18.991C19.117,21.123 16.671,23 13.92,23C11.207,23 9.129,21.503 8,18.999C6.947,18.368 6.171,17.062 6.015,15.97C3.24,13.832 -0,8.799 -0,6.007C-0,3.625 1.875,2.325 4.24,2.05C4.578,1.425 5.24,1 6,1C7.104,1 8,1.896 8,3C8,4.104 7.104,5 6,5C5.285,5 4.657,4.624 4.304,4.059C2.254,4.358 1.752,5.346 2.114,6.791C2.747,9.358 5.719,13.659 8.022,14.912C8.779,15.328 9.215,15.333 9.982,14.914C12.708,13.431 15.963,8.217 16,6.056C16.022,4.768 14.971,4.235 13.7,4.054M20.5,17C19.672,17 19,16.326 19,15.5C19,14.672 19.672,14 20.5,14C21.328,14 22,14.672 22,15.5C22,16.326 21.328,17 20.5,17" style="fill:rgb(93,113,26);"/>
            </g>
        </g>
    </g>
</svg>
