<?xml version="1.0" encoding="UTF-8" standalone="no"?>
<!DOCTYPE svg PUBLIC "-//W3C//DTD SVG 1.1//EN" "http://www.w3.org/Graphics/SVG/1.1/DTD/svg11.dtd">
<svg width="100%" height="100%" viewBox="0 0 720 828" version="1.1" xmlns="http://www.w3.org/2000/svg" xmlns:xlink="http://www.w3.org/1999/xlink" xml:space="preserve" xmlns:serif="http://www.serif.com/" style="fill-rule:evenodd;clip-rule:evenodd;stroke-linecap:round;stroke-linejoin:round;stroke-miterlimit:1.5;">
    <rect id="ArtBoard1" x="0" y="0" width="720" height="828" style="fill:none;"/>
    <g id="ArtBoard11" serif:id="ArtBoard1">
        <g transform="matrix(0.0951691,0,0,-0.0951691,-3.61133,807.997)">
            <path d="M3322,8263C3325,8246 3321,8244 3284,8241C3257,8239 3201,8172 3194,8135C3191,8115 3184,8097 3179,8094C3174,8091 3170,8082 3170,8073C3170,8065 3150,8038 3125,8014C3094,7985 3080,7963 3080,7945C3080,7912 3046,7880 2983,7856C2957,7846 2925,7826 2913,7811L2890,7785L2855,7805C2835,7815 2806,7840 2790,7859C2737,7923 2717,7941 2701,7934C2666,7921 2647,7922 2616,7940C2592,7953 2571,7957 2544,7953C2507,7948 2504,7950 2482,7989C2435,8072 2371,8085 2312,8023L2277,7986L2283,7893C2288,7813 2286,7800 2273,7800C2262,7800 2260,7797 2268,7787C2279,7775 2291,7730 2292,7700C2293,7692 2302,7673 2312,7658C2323,7642 2328,7625 2324,7619C2320,7611 2315,7612 2309,7621C2302,7632 2300,7631 2300,7618C2300,7608 2304,7600 2309,7600C2313,7600 2313,7581 2308,7558C2281,7436 2277,7359 2293,7306C2303,7277 2310,7246 2310,7237C2310,7213 2350,7190 2391,7190C2423,7190 2434,7183 2469,7144C2491,7119 2508,7094 2507,7090C2504,7077 2573,7021 2607,7008C2631,6999 2639,6991 2638,6974C2637,6962 2633,6953 2629,6956C2625,6958 2620,6954 2617,6947C2615,6941 2593,6929 2569,6922C2492,6899 2485,6887 2486,6790C2486,6743 2493,6688 2500,6668C2512,6636 2512,6628 2501,6618C2490,6607 2487,6608 2483,6618C2480,6624 2474,6628 2469,6624C2453,6614 2400,6644 2400,6662C2400,6682 2384,6686 2378,6668C2375,6661 2369,6660 2359,6665C2351,6670 2341,6675 2335,6675C2304,6676 2009,6802 2003,6817C2000,6824 1993,6827 1988,6824C1983,6820 1968,6822 1957,6827C1945,6833 1908,6848 1875,6860C1842,6873 1810,6889 1804,6896C1798,6904 1791,6907 1788,6904C1781,6898 1659,6938 1646,6951C1640,6956 1627,6960 1616,6960C1597,6960 1548,6974 1505,6991C1475,7002 1439,6996 1428,6977C1422,6965 1426,6948 1445,6915C1477,6861 1473,6842 1420,6800C1396,6781 1379,6758 1375,6738C1368,6707 1277,6600 1258,6600C1248,6600 1218,6612 1117,6658C1048,6689 990,6740 990,6769C990,6810 960,6849 912,6874C861,6900 806,6953 796,6985C792,6996 779,7013 766,7022C743,7039 741,7038 671,6979C632,6946 579,6912 555,6903C518,6891 509,6883 501,6855C496,6836 480,6809 466,6795C434,6763 433,6742 465,6680C495,6621 496,6605 471,6542C449,6488 443,6388 456,6326C464,6294 477,6278 530,6236C566,6209 613,6169 635,6149C669,6116 674,6106 673,6070C672,6048 664,6016 656,6000C643,5973 644,5967 662,5928C676,5900 679,5885 671,5882C664,5880 667,5869 680,5853C691,5839 700,5819 700,5810C700,5800 706,5790 714,5787C722,5784 736,5770 746,5755C759,5735 760,5727 750,5715C743,5707 735,5702 731,5705C727,5707 711,5697 696,5683C670,5659 669,5655 675,5591C679,5555 683,5481 685,5427C687,5373 694,5323 699,5316C705,5309 714,5277 720,5244C725,5212 732,5171 736,5154C741,5126 737,5117 701,5084C678,5062 660,5040 660,5034C660,5016 626,4991 592,4984C575,4981 554,4970 547,4961C526,4938 511,4878 520,4854C529,4831 616,4796 693,4785C719,4781 743,4773 746,4768C753,4757 780,4777 780,4794C780,4800 789,4811 800,4818C811,4825 820,4836 820,4844C820,4869 904,4879 941,4859C952,4854 989,4844 1023,4839C1102,4827 1152,4811 1145,4800C1142,4795 1144,4789 1150,4785C1163,4777 1163,4680 1150,4680C1145,4680 1140,4675 1140,4669C1140,4663 1146,4660 1154,4663C1177,4672 1166,4620 1131,4555C1114,4523 1100,4490 1100,4480C1100,4471 1091,4455 1080,4445C1063,4430 1050,4428 993,4434C897,4445 861,4442 820,4422C790,4408 783,4397 773,4355C767,4328 761,4260 761,4205C760,4141 756,4100 748,4092C741,4085 709,4080 676,4080C642,4080 609,4076 602,4071C584,4060 583,3956 600,3935C607,3926 629,3920 654,3920C710,3920 770,3902 770,3886C770,3878 786,3860 805,3846C834,3823 840,3813 840,3781C840,3733 859,3716 905,3723C946,3730 952,3723 956,3663C960,3597 982,3511 997,3499C1005,3491 1053,3488 1126,3489C1190,3490 1239,3487 1236,3482C1233,3477 1251,3475 1276,3478C1311,3481 1324,3478 1334,3464C1343,3452 1353,3449 1366,3455C1376,3459 1388,3463 1392,3462C1396,3461 1402,3469 1405,3480C1417,3517 1437,3530 1465,3517C1479,3510 1488,3499 1485,3492C1482,3485 1485,3482 1490,3485C1496,3488 1503,3484 1506,3476C1514,3454 1458,3377 1403,3337C1313,3271 1289,3239 1283,3176C1278,3127 1269,3107 1250,3105C1176,3094 1046,3090 1041,3098C1034,3110 950,3091 950,3078C950,3074 941,3070 930,3070C919,3070 909,3064 908,3058C906,3036 903,3026 896,3005C879,2959 873,2955 832,2958C807,2960 787,2955 777,2946C762,2930 745,2805 755,2778C762,2761 790,2750 827,2750C839,2750 858,2739 869,2725C887,2701 888,2686 886,2514C884,2366 880,2326 869,2319C857,2312 857,2310 870,2310C883,2310 883,2309 870,2300C862,2295 860,2290 866,2290C872,2290 877,2284 877,2278C879,2213 900,2141 930,2100C954,2066 956,2027 934,2009C926,2002 908,1975 894,1949C881,1923 845,1876 815,1844C784,1813 761,1782 764,1776C777,1747 810,1627 825,1555C842,1475 866,1397 920,1245C936,1201 959,1131 971,1090C983,1049 997,1008 1001,1000C1005,992 1016,963 1025,935C1061,831 1030,840 1360,840C1579,840 1650,837 1650,828C1650,819 1653,819 1662,828C1670,836 1708,840 1767,840C1843,840 1860,837 1860,825C1860,817 1868,810 1878,810C1887,810 1903,796 1913,779C1930,748 1931,748 1983,755C2011,760 2046,764 2060,765C2093,768 2144,782 2150,789C2153,792 2184,810 2220,829C2256,848 2323,883 2369,907C2415,931 2459,949 2466,946C2495,935 2580,732 2580,674C2580,656 2590,626 2603,607C2616,588 2632,546 2639,514C2646,482 2658,436 2667,413C2675,390 2680,364 2676,355C2673,346 2674,342 2679,345C2684,348 2692,345 2696,339C2700,332 2717,330 2741,334C2776,340 2781,337 2789,318C2794,305 2821,272 2848,244C2880,212 2902,178 2909,153C2915,131 2929,103 2940,90C2962,64 2966,40 2948,40C2941,40 2945,31 2956,19C2976,0 2981,-1 3039,11C3087,21 3110,22 3145,12C3213,-6 3239,-4 3233,19C3230,32 3235,39 3254,44C3268,47 3286,63 3294,78C3311,111 3377,160 3404,160C3414,160 3438,176 3457,196C3492,234 3551,255 3593,245C3605,242 3624,222 3635,202C3663,151 3683,151 3732,201L3773,243L3869,235C3922,231 3981,227 4000,226L4035,225L4038,290C4039,326 4045,364 4050,375C4055,386 4066,416 4074,442C4096,509 4210,741 4232,763C4249,780 4258,780 4346,764C4372,759 4381,763 4403,790C4418,807 4430,829 4430,839C4430,862 4466,895 4475,881C4478,875 4490,870 4500,870C4524,870 4580,840 4645,791C4702,748 4744,730 4780,732C4794,733 4847,730 4897,726C4977,719 4991,720 4996,734C4999,743 5036,766 5079,787C5121,807 5157,827 5160,831C5163,835 5176,840 5189,841C5222,846 5224,881 5194,949C5176,990 5171,1015 5174,1054C5179,1111 5159,1144 5107,1167C5072,1183 5065,1201 5079,1240C5085,1259 5086,1280 5080,1295C5073,1313 5075,1320 5087,1324C5099,1329 5100,1333 5090,1345C5080,1357 5081,1361 5093,1366C5102,1369 5120,1394 5134,1422L5159,1472L5138,1500C5119,1527 5118,1533 5129,1591C5136,1625 5149,1661 5159,1671C5176,1690 5178,1689 5222,1645C5279,1590 5310,1587 5402,1630C5436,1646 5471,1660 5478,1660C5485,1660 5501,1667 5515,1676C5561,1706 5635,1689 5622,1651C5619,1642 5622,1640 5629,1644C5636,1648 5647,1646 5655,1640C5666,1631 5678,1631 5700,1639C5717,1644 5737,1647 5744,1644C5752,1641 5764,1647 5771,1657C5779,1667 5797,1681 5812,1687C5837,1698 5880,1773 5880,1806C5880,1813 5889,1834 5900,1852C5914,1876 5920,1903 5920,1948C5920,1983 5925,2021 5931,2033C5938,2044 5943,2084 5944,2120C5944,2179 5941,2191 5912,2236C5885,2276 5880,2291 5885,2320C5888,2339 5895,2382 5901,2415C5915,2495 5920,2642 5909,2656C5904,2662 5899,2681 5898,2700C5896,2724 5888,2738 5870,2748C5844,2763 5825,2805 5777,2958L5752,3041L5811,3035C5879,3028 5968,3043 6020,3071C6039,3082 6058,3090 6063,3090C6091,3090 6162,3136 6194,3175C6215,3200 6238,3220 6246,3220C6254,3220 6259,3224 6255,3229C6252,3234 6256,3244 6263,3252C6316,3307 6317,3311 6315,3457C6313,3533 6316,3604 6320,3614C6325,3630 6338,3633 6396,3635C6476,3637 6507,3650 6521,3687C6532,3718 6517,3775 6495,3784C6484,3788 6480,3807 6480,3859C6480,3936 6477,3940 6402,3948C6394,3949 6390,3961 6392,3977C6394,4000 6389,4008 6364,4020C6337,4034 6335,4039 6342,4065C6349,4090 6359,4201 6360,4260C6360,4273 6385,4275 6513,4278C6596,4279 6674,4282 6685,4285C6696,4287 6707,4289 6710,4289C6720,4291 6740,4356 6745,4400C6751,4461 6759,4478 6781,4485C6791,4489 6800,4495 6800,4500C6800,4512 6848,4560 6860,4560C6864,4560 6891,4578 6919,4600C6947,4622 6974,4640 6979,4640C6985,4640 6993,4646 6997,4654C7001,4661 7022,4673 7043,4679C7063,4686 7080,4698 7080,4706C7080,4714 7084,4720 7088,4720C7104,4720 7120,4771 7120,4822C7120,4867 7116,4879 7089,4906C7061,4935 7059,4940 7069,4976C7075,4998 7078,5039 7077,5069C7075,5127 7087,5142 7114,5115C7123,5106 7130,5103 7130,5109C7130,5115 7144,5120 7161,5120C7178,5120 7189,5116 7185,5110C7182,5105 7184,5100 7189,5100C7204,5100 7203,5153 7189,5167C7181,5175 7180,5201 7184,5247C7203,5437 7203,5428 7181,5435C7163,5441 7140,5491 7140,5528C7140,5543 7114,5543 6996,5529L6904,5517L6862,5548C6835,5567 6793,5584 6744,5595C6659,5614 6600,5636 6600,5649C6600,5654 6568,5706 6529,5765C6460,5870 6410,5956 6410,5971C6410,5975 6431,6002 6458,6030C6533,6112 6560,6158 6560,6202C6560,6226 6565,6240 6573,6240C6596,6240 6675,6300 6681,6322C6684,6335 6682,6358 6677,6373C6671,6393 6671,6405 6679,6413C6687,6421 6690,6421 6690,6412C6690,6396 6717,6397 6723,6413C6726,6421 6753,6439 6784,6454L6840,6481L6840,6530C6840,6557 6836,6582 6830,6585C6817,6593 6817,6643 6831,6657C6858,6684 6834,6809 6797,6835C6743,6873 6698,6900 6689,6900C6679,6900 6682,6954 6693,6980C6697,6988 6708,7020 6718,7051C6734,7101 6735,7114 6723,7159C6716,7187 6702,7223 6691,7238C6681,7253 6656,7291 6636,7323C6608,7367 6595,7380 6576,7380C6562,7380 6549,7376 6546,7371C6543,7366 6518,7351 6492,7337C6412,7295 6367,7269 6322,7238C6259,7194 6229,7189 6176,7209C6151,7218 6128,7229 6124,7233C6120,7237 6106,7240 6094,7240C6081,7240 6067,7248 6062,7258C6050,7280 6026,7420 6033,7426C6036,7429 6072,7435 6113,7439C6204,7447 6247,7473 6292,7548C6310,7577 6336,7606 6351,7612C6407,7637 6424,7771 6372,7778C6359,7780 6346,7788 6344,7795C6340,7804 6327,7807 6302,7803C6236,7794 6213,7781 6197,7740C6189,7719 6173,7697 6162,7691C6144,7682 6138,7684 6120,7710C6095,7744 6065,7748 6017,7724C5996,7712 5985,7711 5982,7719C5980,7725 5974,7730 5968,7730C5963,7730 5962,7721 5965,7709C5970,7693 5968,7689 5959,7692C5949,7695 5945,7716 5944,7760C5942,7830 5928,7850 5879,7850C5864,7850 5839,7855 5823,7861C5808,7868 5779,7876 5760,7879C5736,7883 5724,7891 5722,7905C5720,7916 5711,7933 5701,7944C5686,7961 5672,7962 5508,7958C5387,7954 5325,7949 5315,7940C5303,7930 5300,7930 5300,7943C5300,7951 5292,7960 5283,7963C5273,7967 5247,7976 5225,7984C5192,7997 5182,7997 5165,7986C5154,7978 5124,7970 5100,7966C5076,7963 5053,7957 5049,7953C5046,7948 5037,7917 5030,7882C5017,7818 4995,7790 4957,7790C4932,7790 4873,7758 4818,7713C4792,7692 4761,7668 4748,7659C4732,7647 4726,7634 4728,7611C4730,7585 4726,7578 4705,7570C4672,7557 4609,7557 4576,7570C4537,7585 4520,7561 4520,7489C4520,7456 4526,7417 4533,7402C4547,7373 4547,7362 4531,7281C4519,7221 4506,7200 4480,7200C4462,7200 4430,7170 4430,7152C4430,7146 4414,7121 4395,7096C4376,7070 4360,7038 4360,7024C4360,6997 4329,6963 4283,6940C4268,6932 4253,6923 4250,6920C4244,6914 4213,6896 4158,6866C4122,6847 4118,6847 4085,6863C4064,6873 4025,6880 3990,6880C3958,6880 3928,6885 3924,6891C3920,6898 3902,6900 3879,6897C3857,6894 3842,6896 3846,6901C3849,6906 3846,6910 3839,6910C3832,6910 3834,6916 3845,6923C3859,6934 3861,6944 3856,6966C3836,7052 3832,7079 3837,7130C3843,7199 3872,7259 3921,7305C3943,7325 3960,7350 3960,7360C3960,7371 3965,7380 3971,7380C3979,7380 3979,7384 3972,7393C3957,7411 3949,7460 3961,7460C3967,7460 3968,7465 3964,7472C3959,7479 3961,7480 3969,7475C3981,7468 4020,7500 4020,7517C4021,7533 4066,7578 4108,7605C4131,7620 4150,7636 4150,7641C4150,7645 4165,7658 4183,7669C4212,7686 4229,7689 4306,7685L4395,7681L4418,7716C4456,7773 4445,7803 4371,7848C4315,7883 4263,7891 4229,7870C4214,7860 4184,7856 4145,7857C4112,7859 4068,7860 4048,7860C4028,7860 4008,7865 4005,7870C4002,7876 3986,7880 3971,7880C3942,7880 3882,7918 3843,7961C3831,7974 3805,8023 3785,8070C3764,8117 3742,8162 3736,8170C3711,8204 3690,8249 3695,8262C3699,8272 3681,8276 3610,8278C3552,8279 3520,8276 3520,8269C3520,8264 3525,8262 3532,8266C3539,8271 3540,8269 3536,8261C3530,8252 3524,8252 3511,8264C3498,8276 3471,8280 3406,8280C3329,8280 3319,8278 3322,8263Z" style="fill:rgb(151,151,151);fill-opacity:0.14;fill-rule:nonzero;"/>
            <clipPath id="_clip1">
                <path d="M3322,8263C3325,8246 3321,8244 3284,8241C3257,8239 3201,8172 3194,8135C3191,8115 3184,8097 3179,8094C3174,8091 3170,8082 3170,8073C3170,8065 3150,8038 3125,8014C3094,7985 3080,7963 3080,7945C3080,7912 3046,7880 2983,7856C2957,7846 2925,7826 2913,7811L2890,7785L2855,7805C2835,7815 2806,7840 2790,7859C2737,7923 2717,7941 2701,7934C2666,7921 2647,7922 2616,7940C2592,7953 2571,7957 2544,7953C2507,7948 2504,7950 2482,7989C2435,8072 2371,8085 2312,8023L2277,7986L2283,7893C2288,7813 2286,7800 2273,7800C2262,7800 2260,7797 2268,7787C2279,7775 2291,7730 2292,7700C2293,7692 2302,7673 2312,7658C2323,7642 2328,7625 2324,7619C2320,7611 2315,7612 2309,7621C2302,7632 2300,7631 2300,7618C2300,7608 2304,7600 2309,7600C2313,7600 2313,7581 2308,7558C2281,7436 2277,7359 2293,7306C2303,7277 2310,7246 2310,7237C2310,7213 2350,7190 2391,7190C2423,7190 2434,7183 2469,7144C2491,7119 2508,7094 2507,7090C2504,7077 2573,7021 2607,7008C2631,6999 2639,6991 2638,6974C2637,6962 2633,6953 2629,6956C2625,6958 2620,6954 2617,6947C2615,6941 2593,6929 2569,6922C2492,6899 2485,6887 2486,6790C2486,6743 2493,6688 2500,6668C2512,6636 2512,6628 2501,6618C2490,6607 2487,6608 2483,6618C2480,6624 2474,6628 2469,6624C2453,6614 2400,6644 2400,6662C2400,6682 2384,6686 2378,6668C2375,6661 2369,6660 2359,6665C2351,6670 2341,6675 2335,6675C2304,6676 2009,6802 2003,6817C2000,6824 1993,6827 1988,6824C1983,6820 1968,6822 1957,6827C1945,6833 1908,6848 1875,6860C1842,6873 1810,6889 1804,6896C1798,6904 1791,6907 1788,6904C1781,6898 1659,6938 1646,6951C1640,6956 1627,6960 1616,6960C1597,6960 1548,6974 1505,6991C1475,7002 1439,6996 1428,6977C1422,6965 1426,6948 1445,6915C1477,6861 1473,6842 1420,6800C1396,6781 1379,6758 1375,6738C1368,6707 1277,6600 1258,6600C1248,6600 1218,6612 1117,6658C1048,6689 990,6740 990,6769C990,6810 960,6849 912,6874C861,6900 806,6953 796,6985C792,6996 779,7013 766,7022C743,7039 741,7038 671,6979C632,6946 579,6912 555,6903C518,6891 509,6883 501,6855C496,6836 480,6809 466,6795C434,6763 433,6742 465,6680C495,6621 496,6605 471,6542C449,6488 443,6388 456,6326C464,6294 477,6278 530,6236C566,6209 613,6169 635,6149C669,6116 674,6106 673,6070C672,6048 664,6016 656,6000C643,5973 644,5967 662,5928C676,5900 679,5885 671,5882C664,5880 667,5869 680,5853C691,5839 700,5819 700,5810C700,5800 706,5790 714,5787C722,5784 736,5770 746,5755C759,5735 760,5727 750,5715C743,5707 735,5702 731,5705C727,5707 711,5697 696,5683C670,5659 669,5655 675,5591C679,5555 683,5481 685,5427C687,5373 694,5323 699,5316C705,5309 714,5277 720,5244C725,5212 732,5171 736,5154C741,5126 737,5117 701,5084C678,5062 660,5040 660,5034C660,5016 626,4991 592,4984C575,4981 554,4970 547,4961C526,4938 511,4878 520,4854C529,4831 616,4796 693,4785C719,4781 743,4773 746,4768C753,4757 780,4777 780,4794C780,4800 789,4811 800,4818C811,4825 820,4836 820,4844C820,4869 904,4879 941,4859C952,4854 989,4844 1023,4839C1102,4827 1152,4811 1145,4800C1142,4795 1144,4789 1150,4785C1163,4777 1163,4680 1150,4680C1145,4680 1140,4675 1140,4669C1140,4663 1146,4660 1154,4663C1177,4672 1166,4620 1131,4555C1114,4523 1100,4490 1100,4480C1100,4471 1091,4455 1080,4445C1063,4430 1050,4428 993,4434C897,4445 861,4442 820,4422C790,4408 783,4397 773,4355C767,4328 761,4260 761,4205C760,4141 756,4100 748,4092C741,4085 709,4080 676,4080C642,4080 609,4076 602,4071C584,4060 583,3956 600,3935C607,3926 629,3920 654,3920C710,3920 770,3902 770,3886C770,3878 786,3860 805,3846C834,3823 840,3813 840,3781C840,3733 859,3716 905,3723C946,3730 952,3723 956,3663C960,3597 982,3511 997,3499C1005,3491 1053,3488 1126,3489C1190,3490 1239,3487 1236,3482C1233,3477 1251,3475 1276,3478C1311,3481 1324,3478 1334,3464C1343,3452 1353,3449 1366,3455C1376,3459 1388,3463 1392,3462C1396,3461 1402,3469 1405,3480C1417,3517 1437,3530 1465,3517C1479,3510 1488,3499 1485,3492C1482,3485 1485,3482 1490,3485C1496,3488 1503,3484 1506,3476C1514,3454 1458,3377 1403,3337C1313,3271 1289,3239 1283,3176C1278,3127 1269,3107 1250,3105C1176,3094 1046,3090 1041,3098C1034,3110 950,3091 950,3078C950,3074 941,3070 930,3070C919,3070 909,3064 908,3058C906,3036 903,3026 896,3005C879,2959 873,2955 832,2958C807,2960 787,2955 777,2946C762,2930 745,2805 755,2778C762,2761 790,2750 827,2750C839,2750 858,2739 869,2725C887,2701 888,2686 886,2514C884,2366 880,2326 869,2319C857,2312 857,2310 870,2310C883,2310 883,2309 870,2300C862,2295 860,2290 866,2290C872,2290 877,2284 877,2278C879,2213 900,2141 930,2100C954,2066 956,2027 934,2009C926,2002 908,1975 894,1949C881,1923 845,1876 815,1844C784,1813 761,1782 764,1776C777,1747 810,1627 825,1555C842,1475 866,1397 920,1245C936,1201 959,1131 971,1090C983,1049 997,1008 1001,1000C1005,992 1016,963 1025,935C1061,831 1030,840 1360,840C1579,840 1650,837 1650,828C1650,819 1653,819 1662,828C1670,836 1708,840 1767,840C1843,840 1860,837 1860,825C1860,817 1868,810 1878,810C1887,810 1903,796 1913,779C1930,748 1931,748 1983,755C2011,760 2046,764 2060,765C2093,768 2144,782 2150,789C2153,792 2184,810 2220,829C2256,848 2323,883 2369,907C2415,931 2459,949 2466,946C2495,935 2580,732 2580,674C2580,656 2590,626 2603,607C2616,588 2632,546 2639,514C2646,482 2658,436 2667,413C2675,390 2680,364 2676,355C2673,346 2674,342 2679,345C2684,348 2692,345 2696,339C2700,332 2717,330 2741,334C2776,340 2781,337 2789,318C2794,305 2821,272 2848,244C2880,212 2902,178 2909,153C2915,131 2929,103 2940,90C2962,64 2966,40 2948,40C2941,40 2945,31 2956,19C2976,0 2981,-1 3039,11C3087,21 3110,22 3145,12C3213,-6 3239,-4 3233,19C3230,32 3235,39 3254,44C3268,47 3286,63 3294,78C3311,111 3377,160 3404,160C3414,160 3438,176 3457,196C3492,234 3551,255 3593,245C3605,242 3624,222 3635,202C3663,151 3683,151 3732,201L3773,243L3869,235C3922,231 3981,227 4000,226L4035,225L4038,290C4039,326 4045,364 4050,375C4055,386 4066,416 4074,442C4096,509 4210,741 4232,763C4249,780 4258,780 4346,764C4372,759 4381,763 4403,790C4418,807 4430,829 4430,839C4430,862 4466,895 4475,881C4478,875 4490,870 4500,870C4524,870 4580,840 4645,791C4702,748 4744,730 4780,732C4794,733 4847,730 4897,726C4977,719 4991,720 4996,734C4999,743 5036,766 5079,787C5121,807 5157,827 5160,831C5163,835 5176,840 5189,841C5222,846 5224,881 5194,949C5176,990 5171,1015 5174,1054C5179,1111 5159,1144 5107,1167C5072,1183 5065,1201 5079,1240C5085,1259 5086,1280 5080,1295C5073,1313 5075,1320 5087,1324C5099,1329 5100,1333 5090,1345C5080,1357 5081,1361 5093,1366C5102,1369 5120,1394 5134,1422L5159,1472L5138,1500C5119,1527 5118,1533 5129,1591C5136,1625 5149,1661 5159,1671C5176,1690 5178,1689 5222,1645C5279,1590 5310,1587 5402,1630C5436,1646 5471,1660 5478,1660C5485,1660 5501,1667 5515,1676C5561,1706 5635,1689 5622,1651C5619,1642 5622,1640 5629,1644C5636,1648 5647,1646 5655,1640C5666,1631 5678,1631 5700,1639C5717,1644 5737,1647 5744,1644C5752,1641 5764,1647 5771,1657C5779,1667 5797,1681 5812,1687C5837,1698 5880,1773 5880,1806C5880,1813 5889,1834 5900,1852C5914,1876 5920,1903 5920,1948C5920,1983 5925,2021 5931,2033C5938,2044 5943,2084 5944,2120C5944,2179 5941,2191 5912,2236C5885,2276 5880,2291 5885,2320C5888,2339 5895,2382 5901,2415C5915,2495 5920,2642 5909,2656C5904,2662 5899,2681 5898,2700C5896,2724 5888,2738 5870,2748C5844,2763 5825,2805 5777,2958L5752,3041L5811,3035C5879,3028 5968,3043 6020,3071C6039,3082 6058,3090 6063,3090C6091,3090 6162,3136 6194,3175C6215,3200 6238,3220 6246,3220C6254,3220 6259,3224 6255,3229C6252,3234 6256,3244 6263,3252C6316,3307 6317,3311 6315,3457C6313,3533 6316,3604 6320,3614C6325,3630 6338,3633 6396,3635C6476,3637 6507,3650 6521,3687C6532,3718 6517,3775 6495,3784C6484,3788 6480,3807 6480,3859C6480,3936 6477,3940 6402,3948C6394,3949 6390,3961 6392,3977C6394,4000 6389,4008 6364,4020C6337,4034 6335,4039 6342,4065C6349,4090 6359,4201 6360,4260C6360,4273 6385,4275 6513,4278C6596,4279 6674,4282 6685,4285C6696,4287 6707,4289 6710,4289C6720,4291 6740,4356 6745,4400C6751,4461 6759,4478 6781,4485C6791,4489 6800,4495 6800,4500C6800,4512 6848,4560 6860,4560C6864,4560 6891,4578 6919,4600C6947,4622 6974,4640 6979,4640C6985,4640 6993,4646 6997,4654C7001,4661 7022,4673 7043,4679C7063,4686 7080,4698 7080,4706C7080,4714 7084,4720 7088,4720C7104,4720 7120,4771 7120,4822C7120,4867 7116,4879 7089,4906C7061,4935 7059,4940 7069,4976C7075,4998 7078,5039 7077,5069C7075,5127 7087,5142 7114,5115C7123,5106 7130,5103 7130,5109C7130,5115 7144,5120 7161,5120C7178,5120 7189,5116 7185,5110C7182,5105 7184,5100 7189,5100C7204,5100 7203,5153 7189,5167C7181,5175 7180,5201 7184,5247C7203,5437 7203,5428 7181,5435C7163,5441 7140,5491 7140,5528C7140,5543 7114,5543 6996,5529L6904,5517L6862,5548C6835,5567 6793,5584 6744,5595C6659,5614 6600,5636 6600,5649C6600,5654 6568,5706 6529,5765C6460,5870 6410,5956 6410,5971C6410,5975 6431,6002 6458,6030C6533,6112 6560,6158 6560,6202C6560,6226 6565,6240 6573,6240C6596,6240 6675,6300 6681,6322C6684,6335 6682,6358 6677,6373C6671,6393 6671,6405 6679,6413C6687,6421 6690,6421 6690,6412C6690,6396 6717,6397 6723,6413C6726,6421 6753,6439 6784,6454L6840,6481L6840,6530C6840,6557 6836,6582 6830,6585C6817,6593 6817,6643 6831,6657C6858,6684 6834,6809 6797,6835C6743,6873 6698,6900 6689,6900C6679,6900 6682,6954 6693,6980C6697,6988 6708,7020 6718,7051C6734,7101 6735,7114 6723,7159C6716,7187 6702,7223 6691,7238C6681,7253 6656,7291 6636,7323C6608,7367 6595,7380 6576,7380C6562,7380 6549,7376 6546,7371C6543,7366 6518,7351 6492,7337C6412,7295 6367,7269 6322,7238C6259,7194 6229,7189 6176,7209C6151,7218 6128,7229 6124,7233C6120,7237 6106,7240 6094,7240C6081,7240 6067,7248 6062,7258C6050,7280 6026,7420 6033,7426C6036,7429 6072,7435 6113,7439C6204,7447 6247,7473 6292,7548C6310,7577 6336,7606 6351,7612C6407,7637 6424,7771 6372,7778C6359,7780 6346,7788 6344,7795C6340,7804 6327,7807 6302,7803C6236,7794 6213,7781 6197,7740C6189,7719 6173,7697 6162,7691C6144,7682 6138,7684 6120,7710C6095,7744 6065,7748 6017,7724C5996,7712 5985,7711 5982,7719C5980,7725 5974,7730 5968,7730C5963,7730 5962,7721 5965,7709C5970,7693 5968,7689 5959,7692C5949,7695 5945,7716 5944,7760C5942,7830 5928,7850 5879,7850C5864,7850 5839,7855 5823,7861C5808,7868 5779,7876 5760,7879C5736,7883 5724,7891 5722,7905C5720,7916 5711,7933 5701,7944C5686,7961 5672,7962 5508,7958C5387,7954 5325,7949 5315,7940C5303,7930 5300,7930 5300,7943C5300,7951 5292,7960 5283,7963C5273,7967 5247,7976 5225,7984C5192,7997 5182,7997 5165,7986C5154,7978 5124,7970 5100,7966C5076,7963 5053,7957 5049,7953C5046,7948 5037,7917 5030,7882C5017,7818 4995,7790 4957,7790C4932,7790 4873,7758 4818,7713C4792,7692 4761,7668 4748,7659C4732,7647 4726,7634 4728,7611C4730,7585 4726,7578 4705,7570C4672,7557 4609,7557 4576,7570C4537,7585 4520,7561 4520,7489C4520,7456 4526,7417 4533,7402C4547,7373 4547,7362 4531,7281C4519,7221 4506,7200 4480,7200C4462,7200 4430,7170 4430,7152C4430,7146 4414,7121 4395,7096C4376,7070 4360,7038 4360,7024C4360,6997 4329,6963 4283,6940C4268,6932 4253,6923 4250,6920C4244,6914 4213,6896 4158,6866C4122,6847 4118,6847 4085,6863C4064,6873 4025,6880 3990,6880C3958,6880 3928,6885 3924,6891C3920,6898 3902,6900 3879,6897C3857,6894 3842,6896 3846,6901C3849,6906 3846,6910 3839,6910C3832,6910 3834,6916 3845,6923C3859,6934 3861,6944 3856,6966C3836,7052 3832,7079 3837,7130C3843,7199 3872,7259 3921,7305C3943,7325 3960,7350 3960,7360C3960,7371 3965,7380 3971,7380C3979,7380 3979,7384 3972,7393C3957,7411 3949,7460 3961,7460C3967,7460 3968,7465 3964,7472C3959,7479 3961,7480 3969,7475C3981,7468 4020,7500 4020,7517C4021,7533 4066,7578 4108,7605C4131,7620 4150,7636 4150,7641C4150,7645 4165,7658 4183,7669C4212,7686 4229,7689 4306,7685L4395,7681L4418,7716C4456,7773 4445,7803 4371,7848C4315,7883 4263,7891 4229,7870C4214,7860 4184,7856 4145,7857C4112,7859 4068,7860 4048,7860C4028,7860 4008,7865 4005,7870C4002,7876 3986,7880 3971,7880C3942,7880 3882,7918 3843,7961C3831,7974 3805,8023 3785,8070C3764,8117 3742,8162 3736,8170C3711,8204 3690,8249 3695,8262C3699,8272 3681,8276 3610,8278C3552,8279 3520,8276 3520,8269C3520,8264 3525,8262 3532,8266C3539,8271 3540,8269 3536,8261C3530,8252 3524,8252 3511,8264C3498,8276 3471,8280 3406,8280C3329,8280 3319,8278 3322,8263Z" clip-rule="nonzero"/>
            </clipPath>
            <g clip-path="url(#_clip1)">
                <g transform="matrix(10,0,0,-10,0,8280)">
                    <path d="M196.049,441.427L201.171,449.154L261.473,428.092L251.828,443.875L251.828,458.039L276.954,503.324L257.828,520.495L248.325,522.497L259.668,541.35L255.768,557.138L255.143,578.925L283.938,577.794L281.301,602.463L294.027,609.468L301.262,619.378L318.286,623.876" style="fill:none;stroke:black;stroke-width:4px;"/>
                </g>
                <g transform="matrix(10,0,0,-10,0,8280)">
                    <path d="M535.192,515.99L516.86,513.662L514.782,544.695L487.544,529.998L489.64,572.324L480.443,572.324L479.679,565.848L467.403,565.863L468.174,555.617L460.026,547.709L434.615,562.085L421.858,540.965L395.348,537.276L398.002,511.231L409.817,497.357L411.436,490.692L422.188,488.458L427.912,493.489L435.258,488.793L408.3,461.324L398.002,459.899L394.911,444.754L382,445.812L374.05,447.68L367.726,435.133L360,440.453L337.086,438.119L335.161,462.318L345.61,482.196L353.372,481.766L356.049,497.357L350.335,506.206L363.728,511.375L360,519.782L365.935,524.984L356.088,529.132L360,551.664L330.538,561.016L320.063,622.068L313.4,658.962L317.385,662.78L311.726,685.771L320.445,697.489L310.625,704.315L305.804,698.794L302.176,708.892L287.884,726.867L262.328,718.458L246.356,726.805L223.298,804.123L256.304,843.359L376.857,842.933L514.049,824.89L553.814,738.008L641.685,564.891L602.293,532.823L569.159,521.323L535.192,515.99Z" style="fill:none;stroke:black;stroke-width:4px;"/>
                </g>
                <g transform="matrix(10,0,0,-10,0,8280)">
                    <path d="M382,144.426L371.871,151.306L360,149.999L353.46,150.907L366.977,185.038L350.335,209.001L449.444,220.411L449.424,282.762L447.163,302.982L453.136,315.175L439.442,344.128L444.35,389.62L469.527,419.853L483.165,458.946L477.374,472.709L528.849,469.752L532.536,477.138L528.061,487.96L533.977,502.252L529.374,514.139L547.885,519.444L568.509,522.052L757.293,537.276L748.709,-29.291L501.783,-38.339L417.348,101.233L382,144.426Z" style="fill:none;stroke:black;stroke-width:4px;"/>
                </g>
                <g transform="matrix(10,0,0,-10,0,8280)">
                    <path d="M445.67,391.129L428.282,388.426L399.681,399.598L350.335,398.993" style="fill:none;stroke:black;stroke-width:4px;"/>
                </g>
                <g transform="matrix(10,0,0,-10,0,8280)">
                    <path d="M187.13,145.368L179.641,158.39L216.901,216.231L239.075,231.414L230.437,250.315L246.25,267.826L247.759,275.962L241.045,284.627L243.72,289.899L300.993,301.962L295.568,309.224L307.201,315.656L297.337,319.668L300.022,327.931L309.289,326.477L318.982,332.855L333.268,332.815L333.791,339.437L328.144,344.583L332.458,349.615L332.567,368.667L350.613,369.645L360,396.081L307.729,414L296.211,423.084L274.15,414L244.552,414L236.977,421.393L213.163,431.688L195.227,440.779L176.045,456.83L153.618,467.072L146.617,471.718L117.724,497.357L44,494.343L20.15,375.709L18.837,150.015L44,101.233L159.858,105.784L187.13,145.368Z" style="fill:white;"/>
                    <clipPath id="_clip2">
                        <path d="M187.13,145.368L179.641,158.39L216.901,216.231L239.075,231.414L230.437,250.315L246.25,267.826L247.759,275.962L241.045,284.627L243.72,289.899L300.993,301.962L295.568,309.224L307.201,315.656L297.337,319.668L300.022,327.931L309.289,326.477L318.982,332.855L333.268,332.815L333.791,339.437L328.144,344.583L332.458,349.615L332.567,368.667L350.613,369.645L360,396.081L307.729,414L296.211,423.084L274.15,414L244.552,414L236.977,421.393L213.163,431.688L195.227,440.779L176.045,456.83L153.618,467.072L146.617,471.718L117.724,497.357L44,494.343L20.15,375.709L18.837,150.015L44,101.233L159.858,105.784L187.13,145.368Z"/>
                    </clipPath>
                    <g clip-path="url(#_clip2)">
                        <g transform="matrix(0.395658,0.395658,-1.10882,1.10882,780.727,106.11)">
                            <g transform="matrix(1,0,0,1,-747,10)">
                                <rect x="-130" y="231" width="47" height="266.357" style="fill:rgb(151,194,31);"/>
                            </g>
                            <g transform="matrix(1,0,0,1,-371,10)">
                                <rect x="-130" y="231" width="47" height="266.357" style="fill:rgb(151,194,31);"/>
                            </g>
                            <g transform="matrix(1,0,0,1,-559,10)">
                                <rect x="-130" y="231" width="47" height="266.357" style="fill:rgb(151,194,31);"/>
                            </g>
                            <g transform="matrix(1,0,0,1,-183,10)">
                                <rect x="-130" y="231" width="47" height="266.357" style="fill:rgb(151,194,31);"/>
                            </g>
                            <g transform="matrix(1,0,0,1,-653,10)">
                                <rect x="-130" y="231" width="47" height="266.357" style="fill:rgb(151,194,31);"/>
                            </g>
                            <g transform="matrix(1,0,0,1,-277,10)">
                                <rect x="-130" y="231" width="47" height="266.357" style="fill:rgb(151,194,31);"/>
                            </g>
                            <g transform="matrix(1,0,0,1,-465,10)">
                                <rect x="-130" y="231" width="47" height="266.357" style="fill:rgb(151,194,31);"/>
                            </g>
                            <g transform="matrix(1,0,0,1,-89,10)">
                                <rect x="-130" y="231" width="47" height="266.357" style="fill:rgb(151,194,31);"/>
                            </g>
                            <g>
                                <g transform="matrix(1,0,0,1,-700,10)">
                                    <rect x="-130" y="231" width="47" height="266.357" style="fill:rgb(151,194,31);fill-opacity:0.73;"/>
                                </g>
                                <g transform="matrix(1,0,0,1,-324,10)">
                                    <rect x="-130" y="231" width="47" height="266.357" style="fill:rgb(151,194,31);fill-opacity:0.73;"/>
                                </g>
                                <g transform="matrix(1,0,0,1,-512,10)">
                                    <rect x="-130" y="231" width="47" height="266.357" style="fill:rgb(151,194,31);fill-opacity:0.73;"/>
                                </g>
                                <g transform="matrix(1,0,0,1,-136,10)">
                                    <rect x="-130" y="231" width="47" height="266.357" style="fill:rgb(151,194,31);fill-opacity:0.73;"/>
                                </g>
                                <g transform="matrix(1,0,0,1,-606,10)">
                                    <rect x="-130" y="231" width="47" height="266.357" style="fill:rgb(151,194,31);fill-opacity:0.73;"/>
                                </g>
                                <g transform="matrix(1,0,0,1,-230,10)">
                                    <rect x="-130" y="231" width="47" height="266.357" style="fill:rgb(151,194,31);fill-opacity:0.73;"/>
                                </g>
                                <g transform="matrix(1,0,0,1,-418,10)">
                                    <rect x="-130" y="231" width="47" height="266.357" style="fill:rgb(151,194,31);fill-opacity:0.73;"/>
                                </g>
                            </g>
                            <g transform="matrix(1,0,0,1,-42,10)">
                                <rect x="-130" y="231" width="47" height="266.357" style="fill:rgb(133,160,40);"/>
                            </g>
                        </g>
                    </g>
                    <path d="M187.13,145.368L179.641,158.39L216.901,216.231L239.075,231.414L230.437,250.315L246.25,267.826L247.759,275.962L241.045,284.627L243.72,289.899L300.993,301.962L295.568,309.224L307.201,315.656L297.337,319.668L300.022,327.931L309.289,326.477L318.982,332.855L333.268,332.815L333.791,339.437L328.144,344.583L332.458,349.615L332.567,368.667L350.613,369.645L360,396.081L307.729,414L296.211,423.084L274.15,414L244.552,414L236.977,421.393L213.163,431.688L195.227,440.779L176.045,456.83L153.618,467.072L146.617,471.718L117.724,497.357L44,494.343L20.15,375.709L18.837,150.015L44,101.233L159.858,105.784L187.13,145.368Z" style="fill:none;stroke:black;stroke-width:4.2px;"/>
                </g>
            </g>
            <path d="M3322,8263C3325,8246 3321,8244 3284,8241C3257,8239 3201,8172 3194,8135C3191,8115 3184,8097 3179,8094C3174,8091 3170,8082 3170,8073C3170,8065 3150,8038 3125,8014C3094,7985 3080,7963 3080,7945C3080,7912 3046,7880 2983,7856C2957,7846 2925,7826 2913,7811L2890,7785L2855,7805C2835,7815 2806,7840 2790,7859C2737,7923 2717,7941 2701,7934C2666,7921 2647,7922 2616,7940C2592,7953 2571,7957 2544,7953C2507,7948 2504,7950 2482,7989C2435,8072 2371,8085 2312,8023L2277,7986L2283,7893C2288,7813 2286,7800 2273,7800C2262,7800 2260,7797 2268,7787C2279,7775 2291,7730 2292,7700C2293,7692 2302,7673 2312,7658C2323,7642 2328,7625 2324,7619C2320,7611 2315,7612 2309,7621C2302,7632 2300,7631 2300,7618C2300,7608 2304,7600 2309,7600C2313,7600 2313,7581 2308,7558C2281,7436 2277,7359 2293,7306C2303,7277 2310,7246 2310,7237C2310,7213 2350,7190 2391,7190C2423,7190 2434,7183 2469,7144C2491,7119 2508,7094 2507,7090C2504,7077 2573,7021 2607,7008C2631,6999 2639,6991 2638,6974C2637,6962 2633,6953 2629,6956C2625,6958 2620,6954 2617,6947C2615,6941 2593,6929 2569,6922C2492,6899 2485,6887 2486,6790C2486,6743 2493,6688 2500,6668C2512,6636 2512,6628 2501,6618C2490,6607 2487,6608 2483,6618C2480,6624 2474,6628 2469,6624C2453,6614 2400,6644 2400,6662C2400,6682 2384,6686 2378,6668C2375,6661 2369,6660 2359,6665C2351,6670 2341,6675 2335,6675C2304,6676 2009,6802 2003,6817C2000,6824 1993,6827 1988,6824C1983,6820 1968,6822 1957,6827C1945,6833 1908,6848 1875,6860C1842,6873 1810,6889 1804,6896C1798,6904 1791,6907 1788,6904C1781,6898 1659,6938 1646,6951C1640,6956 1627,6960 1616,6960C1597,6960 1548,6974 1505,6991C1475,7002 1439,6996 1428,6977C1422,6965 1426,6948 1445,6915C1477,6861 1473,6842 1420,6800C1396,6781 1379,6758 1375,6738C1368,6707 1277,6600 1258,6600C1248,6600 1218,6612 1117,6658C1048,6689 990,6740 990,6769C990,6810 960,6849 912,6874C861,6900 806,6953 796,6985C792,6996 779,7013 766,7022C743,7039 741,7038 671,6979C632,6946 579,6912 555,6903C518,6891 509,6883 501,6855C496,6836 480,6809 466,6795C434,6763 433,6742 465,6680C495,6621 496,6605 471,6542C449,6488 443,6388 456,6326C464,6294 477,6278 530,6236C566,6209 613,6169 635,6149C669,6116 674,6106 673,6070C672,6048 664,6016 656,6000C643,5973 644,5967 662,5928C676,5900 679,5885 671,5882C664,5880 667,5869 680,5853C691,5839 700,5819 700,5810C700,5800 706,5790 714,5787C722,5784 736,5770 746,5755C759,5735 760,5727 750,5715C743,5707 735,5702 731,5705C727,5707 711,5697 696,5683C670,5659 669,5655 675,5591C679,5555 683,5481 685,5427C687,5373 694,5323 699,5316C705,5309 714,5277 720,5244C725,5212 732,5171 736,5154C741,5126 737,5117 701,5084C678,5062 660,5040 660,5034C660,5016 626,4991 592,4984C575,4981 554,4970 547,4961C526,4938 511,4878 520,4854C529,4831 616,4796 693,4785C719,4781 743,4773 746,4768C753,4757 780,4777 780,4794C780,4800 789,4811 800,4818C811,4825 820,4836 820,4844C820,4869 904,4879 941,4859C952,4854 989,4844 1023,4839C1102,4827 1152,4811 1145,4800C1142,4795 1144,4789 1150,4785C1163,4777 1163,4680 1150,4680C1145,4680 1140,4675 1140,4669C1140,4663 1146,4660 1154,4663C1177,4672 1166,4620 1131,4555C1114,4523 1100,4490 1100,4480C1100,4471 1091,4455 1080,4445C1063,4430 1050,4428 993,4434C897,4445 861,4442 820,4422C790,4408 783,4397 773,4355C767,4328 761,4260 761,4205C760,4141 756,4100 748,4092C741,4085 709,4080 676,4080C642,4080 609,4076 602,4071C584,4060 583,3956 600,3935C607,3926 629,3920 654,3920C710,3920 770,3902 770,3886C770,3878 786,3860 805,3846C834,3823 840,3813 840,3781C840,3733 859,3716 905,3723C946,3730 952,3723 956,3663C960,3597 982,3511 997,3499C1005,3491 1053,3488 1126,3489C1190,3490 1239,3487 1236,3482C1233,3477 1251,3475 1276,3478C1311,3481 1324,3478 1334,3464C1343,3452 1353,3449 1366,3455C1376,3459 1388,3463 1392,3462C1396,3461 1402,3469 1405,3480C1417,3517 1437,3530 1465,3517C1479,3510 1488,3499 1485,3492C1482,3485 1485,3482 1490,3485C1496,3488 1503,3484 1506,3476C1514,3454 1458,3377 1403,3337C1313,3271 1289,3239 1283,3176C1278,3127 1269,3107 1250,3105C1176,3094 1046,3090 1041,3098C1034,3110 950,3091 950,3078C950,3074 941,3070 930,3070C919,3070 909,3064 908,3058C906,3036 903,3026 896,3005C879,2959 873,2955 832,2958C807,2960 787,2955 777,2946C762,2930 745,2805 755,2778C762,2761 790,2750 827,2750C839,2750 858,2739 869,2725C887,2701 888,2686 886,2514C884,2366 880,2326 869,2319C857,2312 857,2310 870,2310C883,2310 883,2309 870,2300C862,2295 860,2290 866,2290C872,2290 877,2284 877,2278C879,2213 900,2141 930,2100C954,2066 956,2027 934,2009C926,2002 908,1975 894,1949C881,1923 845,1876 815,1844C784,1813 761,1782 764,1776C777,1747 810,1627 825,1555C842,1475 866,1397 920,1245C936,1201 959,1131 971,1090C983,1049 997,1008 1001,1000C1005,992 1016,963 1025,935C1061,831 1030,840 1360,840C1579,840 1650,837 1650,828C1650,819 1653,819 1662,828C1670,836 1708,840 1767,840C1843,840 1860,837 1860,825C1860,817 1868,810 1878,810C1887,810 1903,796 1913,779C1930,748 1931,748 1983,755C2011,760 2046,764 2060,765C2093,768 2144,782 2150,789C2153,792 2184,810 2220,829C2256,848 2323,883 2369,907C2415,931 2459,949 2466,946C2495,935 2580,732 2580,674C2580,656 2590,626 2603,607C2616,588 2632,546 2639,514C2646,482 2658,436 2667,413C2675,390 2680,364 2676,355C2673,346 2674,342 2679,345C2684,348 2692,345 2696,339C2700,332 2717,330 2741,334C2776,340 2781,337 2789,318C2794,305 2821,272 2848,244C2880,212 2902,178 2909,153C2915,131 2929,103 2940,90C2962,64 2966,40 2948,40C2941,40 2945,31 2956,19C2976,0 2981,-1 3039,11C3087,21 3110,22 3145,12C3213,-6 3239,-4 3233,19C3230,32 3235,39 3254,44C3268,47 3286,63 3294,78C3311,111 3377,160 3404,160C3414,160 3438,176 3457,196C3492,234 3551,255 3593,245C3605,242 3624,222 3635,202C3663,151 3683,151 3732,201L3773,243L3869,235C3922,231 3981,227 4000,226L4035,225L4038,290C4039,326 4045,364 4050,375C4055,386 4066,416 4074,442C4096,509 4210,741 4232,763C4249,780 4258,780 4346,764C4372,759 4381,763 4403,790C4418,807 4430,829 4430,839C4430,862 4466,895 4475,881C4478,875 4490,870 4500,870C4524,870 4580,840 4645,791C4702,748 4744,730 4780,732C4794,733 4847,730 4897,726C4977,719 4991,720 4996,734C4999,743 5036,766 5079,787C5121,807 5157,827 5160,831C5163,835 5176,840 5189,841C5222,846 5224,881 5194,949C5176,990 5171,1015 5174,1054C5179,1111 5159,1144 5107,1167C5072,1183 5065,1201 5079,1240C5085,1259 5086,1280 5080,1295C5073,1313 5075,1320 5087,1324C5099,1329 5100,1333 5090,1345C5080,1357 5081,1361 5093,1366C5102,1369 5120,1394 5134,1422L5159,1472L5138,1500C5119,1527 5118,1533 5129,1591C5136,1625 5149,1661 5159,1671C5176,1690 5178,1689 5222,1645C5279,1590 5310,1587 5402,1630C5436,1646 5471,1660 5478,1660C5485,1660 5501,1667 5515,1676C5561,1706 5635,1689 5622,1651C5619,1642 5622,1640 5629,1644C5636,1648 5647,1646 5655,1640C5666,1631 5678,1631 5700,1639C5717,1644 5737,1647 5744,1644C5752,1641 5764,1647 5771,1657C5779,1667 5797,1681 5812,1687C5837,1698 5880,1773 5880,1806C5880,1813 5889,1834 5900,1852C5914,1876 5920,1903 5920,1948C5920,1983 5925,2021 5931,2033C5938,2044 5943,2084 5944,2120C5944,2179 5941,2191 5912,2236C5885,2276 5880,2291 5885,2320C5888,2339 5895,2382 5901,2415C5915,2495 5920,2642 5909,2656C5904,2662 5899,2681 5898,2700C5896,2724 5888,2738 5870,2748C5844,2763 5825,2805 5777,2958L5752,3041L5811,3035C5879,3028 5968,3043 6020,3071C6039,3082 6058,3090 6063,3090C6091,3090 6162,3136 6194,3175C6215,3200 6238,3220 6246,3220C6254,3220 6259,3224 6255,3229C6252,3234 6256,3244 6263,3252C6316,3307 6317,3311 6315,3457C6313,3533 6316,3604 6320,3614C6325,3630 6338,3633 6396,3635C6476,3637 6507,3650 6521,3687C6532,3718 6517,3775 6495,3784C6484,3788 6480,3807 6480,3859C6480,3936 6477,3940 6402,3948C6394,3949 6390,3961 6392,3977C6394,4000 6389,4008 6364,4020C6337,4034 6335,4039 6342,4065C6349,4090 6359,4201 6360,4260C6360,4273 6385,4275 6513,4278C6596,4279 6674,4282 6685,4285C6696,4287 6707,4289 6710,4289C6720,4291 6740,4356 6745,4400C6751,4461 6759,4478 6781,4485C6791,4489 6800,4495 6800,4500C6800,4512 6848,4560 6860,4560C6864,4560 6891,4578 6919,4600C6947,4622 6974,4640 6979,4640C6985,4640 6993,4646 6997,4654C7001,4661 7022,4673 7043,4679C7063,4686 7080,4698 7080,4706C7080,4714 7084,4720 7088,4720C7104,4720 7120,4771 7120,4822C7120,4867 7116,4879 7089,4906C7061,4935 7059,4940 7069,4976C7075,4998 7078,5039 7077,5069C7075,5127 7087,5142 7114,5115C7123,5106 7130,5103 7130,5109C7130,5115 7144,5120 7161,5120C7178,5120 7189,5116 7185,5110C7182,5105 7184,5100 7189,5100C7204,5100 7203,5153 7189,5167C7181,5175 7180,5201 7184,5247C7203,5437 7203,5428 7181,5435C7163,5441 7140,5491 7140,5528C7140,5543 7114,5543 6996,5529L6904,5517L6862,5548C6835,5567 6793,5584 6744,5595C6659,5614 6600,5636 6600,5649C6600,5654 6568,5706 6529,5765C6460,5870 6410,5956 6410,5971C6410,5975 6431,6002 6458,6030C6533,6112 6560,6158 6560,6202C6560,6226 6565,6240 6573,6240C6596,6240 6675,6300 6681,6322C6684,6335 6682,6358 6677,6373C6671,6393 6671,6405 6679,6413C6687,6421 6690,6421 6690,6412C6690,6396 6717,6397 6723,6413C6726,6421 6753,6439 6784,6454L6840,6481L6840,6530C6840,6557 6836,6582 6830,6585C6817,6593 6817,6643 6831,6657C6858,6684 6834,6809 6797,6835C6743,6873 6698,6900 6689,6900C6679,6900 6682,6954 6693,6980C6697,6988 6708,7020 6718,7051C6734,7101 6735,7114 6723,7159C6716,7187 6702,7223 6691,7238C6681,7253 6656,7291 6636,7323C6608,7367 6595,7380 6576,7380C6562,7380 6549,7376 6546,7371C6543,7366 6518,7351 6492,7337C6412,7295 6367,7269 6322,7238C6259,7194 6229,7189 6176,7209C6151,7218 6128,7229 6124,7233C6120,7237 6106,7240 6094,7240C6081,7240 6067,7248 6062,7258C6050,7280 6026,7420 6033,7426C6036,7429 6072,7435 6113,7439C6204,7447 6247,7473 6292,7548C6310,7577 6336,7606 6351,7612C6407,7637 6424,7771 6372,7778C6359,7780 6346,7788 6344,7795C6340,7804 6327,7807 6302,7803C6236,7794 6213,7781 6197,7740C6189,7719 6173,7697 6162,7691C6144,7682 6138,7684 6120,7710C6095,7744 6065,7748 6017,7724C5996,7712 5985,7711 5982,7719C5980,7725 5974,7730 5968,7730C5963,7730 5962,7721 5965,7709C5970,7693 5968,7689 5959,7692C5949,7695 5945,7716 5944,7760C5942,7830 5928,7850 5879,7850C5864,7850 5839,7855 5823,7861C5808,7868 5779,7876 5760,7879C5736,7883 5724,7891 5722,7905C5720,7916 5711,7933 5701,7944C5686,7961 5672,7962 5508,7958C5387,7954 5325,7949 5315,7940C5303,7930 5300,7930 5300,7943C5300,7951 5292,7960 5283,7963C5273,7967 5247,7976 5225,7984C5192,7997 5182,7997 5165,7986C5154,7978 5124,7970 5100,7966C5076,7963 5053,7957 5049,7953C5046,7948 5037,7917 5030,7882C5017,7818 4995,7790 4957,7790C4932,7790 4873,7758 4818,7713C4792,7692 4761,7668 4748,7659C4732,7647 4726,7634 4728,7611C4730,7585 4726,7578 4705,7570C4672,7557 4609,7557 4576,7570C4537,7585 4520,7561 4520,7489C4520,7456 4526,7417 4533,7402C4547,7373 4547,7362 4531,7281C4519,7221 4506,7200 4480,7200C4462,7200 4430,7170 4430,7152C4430,7146 4414,7121 4395,7096C4376,7070 4360,7038 4360,7024C4360,6997 4329,6963 4283,6940C4268,6932 4253,6923 4250,6920C4244,6914 4213,6896 4158,6866C4122,6847 4118,6847 4085,6863C4064,6873 4025,6880 3990,6880C3958,6880 3928,6885 3924,6891C3920,6898 3902,6900 3879,6897C3857,6894 3842,6896 3846,6901C3849,6906 3846,6910 3839,6910C3832,6910 3834,6916 3845,6923C3859,6934 3861,6944 3856,6966C3836,7052 3832,7079 3837,7130C3843,7199 3872,7259 3921,7305C3943,7325 3960,7350 3960,7360C3960,7371 3965,7380 3971,7380C3979,7380 3979,7384 3972,7393C3957,7411 3949,7460 3961,7460C3967,7460 3968,7465 3964,7472C3959,7479 3961,7480 3969,7475C3981,7468 4020,7500 4020,7517C4021,7533 4066,7578 4108,7605C4131,7620 4150,7636 4150,7641C4150,7645 4165,7658 4183,7669C4212,7686 4229,7689 4306,7685L4395,7681L4418,7716C4456,7773 4445,7803 4371,7848C4315,7883 4263,7891 4229,7870C4214,7860 4184,7856 4145,7857C4112,7859 4068,7860 4048,7860C4028,7860 4008,7865 4005,7870C4002,7876 3986,7880 3971,7880C3942,7880 3882,7918 3843,7961C3831,7974 3805,8023 3785,8070C3764,8117 3742,8162 3736,8170C3711,8204 3690,8249 3695,8262C3699,8272 3681,8276 3610,8278C3552,8279 3520,8276 3520,8269C3520,8264 3525,8262 3532,8266C3539,8271 3540,8269 3536,8261C3530,8252 3524,8252 3511,8264C3498,8276 3471,8280 3406,8280C3329,8280 3319,8278 3322,8263Z" style="fill:none;fill-rule:nonzero;stroke:black;stroke-width:42.03px;stroke-linecap:butt;stroke-miterlimit:2;"/>
        </g>
    </g>
</svg>
