<?xml version="1.0" encoding="UTF-8" standalone="no"?>
<!DOCTYPE svg PUBLIC "-//W3C//DTD SVG 1.1//EN" "http://www.w3.org/Graphics/SVG/1.1/DTD/svg11.dtd">
<svg width="100%" height="100%" viewBox="0 0 500 500" version="1.1" xmlns="http://www.w3.org/2000/svg" xmlns:xlink="http://www.w3.org/1999/xlink" xml:space="preserve" xmlns:serif="http://www.serif.com/" style="fill-rule:evenodd;clip-rule:evenodd;stroke-linejoin:round;stroke-miterlimit:2;">
    <path d="M500,80.897C500,36.249 463.751,0 419.103,0L80.897,0C36.249,0 0,36.249 0,80.897L0,419.103C0,463.751 36.249,500 80.897,500L419.103,500C463.751,500 500,463.751 500,419.103L500,80.897Z" style="fill:white;"/>
    <g transform="matrix(0.0888889,0,0,-0.0888889,27.3333,471.254)">
        <path d="M3595,3731C3503,3719 3415,3693 3341,3657C3141,3558 3046,3454 2934,3209C2866,3060 2755,2859 2692,2770C2633,2687 2530,2583 2460,2536C2380,2483 2271,2444 2104,2411C1966,2383 1923,2370 1965,2370C1975,2370 2019,2347 2063,2319C2426,2086 3023,1980 3386,2086C3537,2129 3621,2180 3736,2294C3826,2384 3843,2407 3889,2500C3953,2631 3974,2714 4005,2960C4045,3273 4079,3408 4156,3564C4175,3602 4188,3635 4185,3639C4181,3642 4133,3645 4077,3645C3986,3645 3970,3642 3924,3618C3856,3582 3788,3513 3722,3412C3672,3336 3644,3280 3467,2908C3387,2740 3321,2642 3225,2551C3092,2425 2928,2351 2732,2329C2644,2319 2549,2323 2562,2336C2565,2338 2607,2345 2656,2351C2885,2379 3051,2459 3196,2612C3297,2719 3374,2842 3509,3110C3573,3239 3649,3379 3677,3420C3777,3568 3911,3663 4040,3678C4114,3686 4128,3704 4073,3719C4024,3733 3674,3741 3595,3731Z" style="fill:rgb(151,194,31);fill-rule:nonzero;"/>
    </g>
    <g transform="matrix(0.0888889,0,0,-0.0888889,27.3333,471.254)">
        <path d="M2063,3606C2024,3588 2022,3585 1966,3417C1940,3342 1911,3261 1901,3237C1877,3183 1786,3096 1635,2985C1254,2705 1200,2656 1085,2480C1040,2411 961,2297 909,2225C798,2072 760,2015 760,1999C760,1986 786,1990 870,2014C1005,2053 1136,2064 1435,2064C1753,2064 1817,2056 2024,1990C2073,1974 2116,1963 2119,1965C2121,1968 2121,1971 2119,1973C2117,1975 2077,2005 2032,2039C1880,2154 1770,2279 1770,2338C1770,2351 1782,2387 1797,2418C1825,2477 1895,2553 2146,2790C2248,2886 2274,2917 2302,2975C2355,3083 2365,3129 2364,3275C2364,3386 2360,3414 2341,3463C2315,3529 2280,3574 2239,3595C2196,3618 2101,3623 2063,3606Z" style="fill:rgb(255,186,0);fill-rule:nonzero;"/>
    </g>
    <g transform="matrix(0.0888889,0,0,-0.0888889,27.3333,471.254)">
        <path d="M4520,2492C4490,2482 4441,2461 4413,2447C4347,2413 4151,2281 4085,2225C3860,2036 3579,1928 3050,1830C2932,1808 2824,1785 2811,1779C2789,1770 2788,1768 2803,1753C2813,1743 2858,1733 2937,1723C3387,1668 3990,1828 4700,2191C4914,2301 4951,2323 4949,2344C4948,2363 4848,2440 4782,2472C4701,2512 4602,2519 4520,2492Z" style="fill:rgb(255,186,0);fill-rule:nonzero;"/>
    </g>
    <g transform="matrix(0.0888889,0,0,-0.0888889,27.3333,471.254)">
        <path d="M4524,2045C4453,2030 4371,1997 4172,1906C3820,1743 3544,1677 3215,1676C2937,1675 2793,1704 2355,1847C1954,1977 1894,1994 1730,2016C1591,2034 1320,2034 1173,2015C782,1964 440,1817 207,1600C144,1541 30,1405 30,1388C30,1385 185,1380 375,1376C710,1370 721,1370 777,1391C1130,1521 1251,1550 1460,1557C1711,1566 1828,1542 2280,1390C2442,1335 2610,1284 2653,1275C2848,1236 3214,1232 3448,1265C3734,1306 4129,1423 4450,1562C4664,1655 4980,1815 4980,1830C4980,1835 4948,1868 4908,1904C4824,1981 4728,2034 4646,2049C4613,2055 4586,2060 4586,2059C4585,2059 4558,2052 4524,2045Z" style="fill:rgb(255,186,0);fill-rule:nonzero;"/>
    </g>
</svg>
