<?xml version="1.0" encoding="UTF-8" standalone="no"?>
<!DOCTYPE svg PUBLIC "-//W3C//DTD SVG 1.1//EN" "http://www.w3.org/Graphics/SVG/1.1/DTD/svg11.dtd">
<svg width="100%" height="100%" viewBox="0 0 50 50" version="1.1" xmlns="http://www.w3.org/2000/svg" xmlns:xlink="http://www.w3.org/1999/xlink" xml:space="preserve" xmlns:serif="http://www.serif.com/" style="fill-rule:evenodd;clip-rule:evenodd;stroke-linejoin:round;stroke-miterlimit:2;">
    <g transform="matrix(1,0,0,1,-320.501,-106.664)">
        <g id="ArtBoard3" transform="matrix(1,0,0,1,-195.832,106.664)">
            <rect x="516.333" y="0" width="50" height="50" style="fill:none;"/>
            <clipPath id="_clip1">
                <rect x="516.333" y="0" width="50" height="50"/>
            </clipPath>
            <g clip-path="url(#_clip1)">
                <g transform="matrix(4.16667,0,0,4.16667,542.342,37.6806)">
                    <g transform="matrix(1,0,0,1,-256,-256)">
                        <clipPath id="_clip2">
                            <rect x="0" y="0" width="512" height="512"/>
                        </clipPath>
                        <g clip-path="url(#_clip2)">
                            <g transform="matrix(0.1,0,0,-0.1,0,512)">
                                <path d="M855,5096C727,5069 571,5018 520,4987C433,4933 329,4812 224,4639C118,4465 46,4279 15,4104C-4,3993 -4,3768 15,3658C43,3497 124,3250 283,2835C479,2327 798,1872 1335,1335C1873,797 2325,480 2835,283C3188,147 3396,76 3560,34C3700,-1 3957,-11 4097,14C4337,56 4585,169 4811,341C4958,452 5005,523 5059,711C5120,923 5138,1111 5104,1168C5077,1213 5018,1250 4640,1460C4439,1571 4223,1697 4159,1739C4007,1841 3960,1863 3896,1864C3799,1865 3699,1782 3499,1534C3314,1305 3212,1210 3148,1210C3093,1210 3005,1251 2802,1371C2440,1586 2217,1754 1985,1985C1756,2215 1587,2440 1372,2801C1251,3005 1210,3092 1210,3148C1210,3211 1305,3315 1531,3497C1684,3620 1799,3733 1836,3796C1858,3833 1864,3856 1864,3896C1863,3960 1841,4007 1739,4159C1697,4223 1571,4439 1460,4640C1250,5018 1213,5077 1168,5104C1129,5127 989,5124 855,5096Z" style="fill-rule:nonzero;"/>
                            </g>
                        </g>
                    </g>
                </g>
                <g transform="matrix(4.16667,0,0,4.16667,545.929,26.5725)">
                    <g transform="matrix(1,0,0,1,-256,-256)">
                        <clipPath id="_clip3">
                            <rect x="0" y="0" width="512" height="512"/>
                        </clipPath>
                        <g clip-path="url(#_clip3)">
                            <g transform="matrix(0.1,0,0,-0.1,0,512)">
                                <path d="M855,5096C727,5069 571,5018 520,4987C433,4933 329,4812 224,4639C118,4465 46,4279 15,4104C-4,3993 -4,3768 15,3658C43,3497 124,3250 283,2835C479,2327 798,1872 1335,1335C1873,797 2325,480 2835,283C3188,147 3396,76 3560,34C3700,-1 3957,-11 4097,14C4337,56 4585,169 4811,341C4958,452 5005,523 5059,711C5120,923 5138,1111 5104,1168C5077,1213 5018,1250 4640,1460C4439,1571 4223,1697 4159,1739C4007,1841 3960,1863 3896,1864C3799,1865 3699,1782 3499,1534C3314,1305 3212,1210 3148,1210C3093,1210 3005,1251 2802,1371C2440,1586 2217,1754 1985,1985C1756,2215 1587,2440 1372,2801C1251,3005 1210,3092 1210,3148C1210,3211 1305,3315 1531,3497C1684,3620 1799,3733 1836,3796C1858,3833 1864,3856 1864,3896C1863,3960 1841,4007 1739,4159C1697,4223 1571,4439 1460,4640C1250,5018 1213,5077 1168,5104C1129,5127 989,5124 855,5096Z" style="fill-rule:nonzero;"/>
                            </g>
                        </g>
                    </g>
                </g>
                <g transform="matrix(0.0097505,0,0,-0.0097505,516.401,49.9815)">
                    <path d="M855,5096C727,5069 571,5018 520,4987C433,4933 329,4812 224,4639C118,4465 46,4279 15,4104C-4,3993 -4,3768 15,3658C43,3497 124,3250 283,2835C479,2327 798,1872 1335,1335C1873,797 2325,480 2835,283C3188,147 3396,76 3560,34C3700,-1 3957,-11 4097,14C4337,56 4585,169 4811,341C4958,452 5005,523 5059,711C5120,923 5138,1111 5104,1168C5077,1213 5018,1250 4640,1460C4439,1571 4223,1697 4159,1739C4007,1841 3960,1863 3896,1864C3799,1865 3699,1782 3499,1534C3314,1305 3212,1210 3148,1210C3093,1210 3005,1251 2802,1371C2440,1586 2217,1754 1985,1985C1756,2215 1587,2440 1372,2801C1251,3005 1210,3092 1210,3148C1210,3211 1305,3315 1531,3497C1684,3620 1799,3733 1836,3796C1858,3833 1864,3856 1864,3896C1863,3960 1841,4007 1739,4159C1697,4223 1571,4439 1460,4640C1250,5018 1213,5077 1168,5104C1129,5127 989,5124 855,5096Z" style="fill:white;fill-rule:nonzero;"/>
                </g>
            </g>
        </g>
    </g>
</svg>
