<?xml version="1.0" encoding="UTF-8" standalone="no"?>
<!DOCTYPE svg PUBLIC "-//W3C//DTD SVG 1.1//EN" "http://www.w3.org/Graphics/SVG/1.1/DTD/svg11.dtd">
<svg width="100%" height="100%" viewBox="0 0 500 500" version="1.1" xmlns="http://www.w3.org/2000/svg" xmlns:xlink="http://www.w3.org/1999/xlink" xml:space="preserve" xmlns:serif="http://www.serif.com/" style="fill-rule:evenodd;clip-rule:evenodd;stroke-linejoin:round;stroke-miterlimit:2;">
    <g transform="matrix(0.1,0,0,-0.1,0,512)">
        <g transform="matrix(0.976655,0,0,0.976655,-0.603185,119.525)">
            <path d="M3076,5101C3013,5059 3010,5046 3010,4815C3010,4626 3012,4602 3029,4576C3060,4530 3098,4510 3160,4510C3222,4510 3260,4530 3291,4576C3308,4602 3310,4626 3310,4815C3310,5004 3308,5028 3291,5054C3260,5100 3222,5120 3160,5120C3123,5120 3096,5114 3076,5101Z" style="fill:rgb(93,113,26);fill-rule:nonzero;"/>
        </g>
        <g transform="matrix(0.976655,0,0,0.976655,-0.603185,119.525)">
            <path d="M2133,4699C2103,4684 2085,4666 2071,4636C2026,4544 2050,4492 2209,4337C2275,4273 2340,4216 2355,4210C2487,4160 2610,4283 2560,4415C2554,4430 2497,4495 2433,4561C2277,4720 2224,4744 2133,4699Z" style="fill:rgb(93,113,26);fill-rule:nonzero;"/>
        </g>
        <g transform="matrix(0.976655,0,0,0.976655,-0.603185,119.525)">
            <path d="M4044,4700C3996,4676 3775,4455 3760,4415C3710,4283 3833,4160 3965,4210C3980,4216 4045,4273 4111,4337C4270,4492 4294,4544 4249,4636C4234,4667 4217,4684 4186,4699C4133,4725 4096,4725 4044,4700Z" style="fill:rgb(93,113,26);fill-rule:nonzero;"/>
        </g>
        <g transform="matrix(0.976655,0,0,0.976655,-0.603185,119.525)">
            <path d="M2761,4173C2720,4135 2720,4135 2660,3903C2627,3775 2586,3634 2568,3588C2414,3196 2123,2853 1857,2750L1786,2722L1752,2779C1709,2851 1697,2864 1627,2916C1514,3000 1511,3000 921,3000C432,3000 403,2999 376,2981C361,2971 339,2949 329,2934C311,2906 310,2860 310,1501C310,120 310,97 330,65C372,-3 355,-2 950,2L1485,5L1550,37C1631,77 1686,123 1734,193L1772,247L2068,149C2538,-6 2428,7 3354,3C4117,-1 4145,0 4201,19C4342,66 4448,175 4495,318C4508,359 4511,393 4507,468C4504,521 4499,576 4495,590C4489,613 4493,617 4537,632C4602,655 4691,728 4735,792C4835,940 4835,1174 4736,1304C4704,1347 4704,1353 4736,1396C4835,1525 4835,1775 4736,1904C4722,1923 4710,1944 4710,1950C4710,1956 4722,1977 4736,1996C4807,2089 4832,2272 4791,2393C4744,2530 4640,2634 4502,2681C4451,2699 4414,2700 3970,2700L3492,2700L3516,2781C3544,2878 3576,3047 3596,3207C3616,3369 3615,3683 3594,3763C3540,3971 3371,4140 3163,4194C3121,4205 3056,4210 2952,4210L2803,4210L2761,4173ZM3137,3869C3207,3835 3242,3799 3279,3720C3304,3667 3305,3658 3304,3505C3303,3404 3294,3290 3281,3195C3260,3042 3205,2805 3176,2738L3160,2700L2982,2700C2787,2700 2770,2695 2729,2634C2704,2595 2703,2505 2729,2467C2772,2401 2713,2406 3595,2400C4373,2395 4396,2394 4428,2375C4524,2317 4525,2186 4430,2127C4398,2107 4378,2105 4195,2100C3978,2095 3967,2092 3929,2033C3904,1995 3904,1905 3929,1867C3967,1808 3978,1805 4195,1800C4417,1794 4441,1788 4481,1724C4521,1658 4497,1566 4428,1525C4399,1507 4371,1505 4195,1500C3978,1495 3967,1492 3929,1433C3904,1395 3904,1305 3929,1267C3967,1208 3978,1205 4195,1200C4378,1195 4398,1193 4430,1173C4476,1145 4500,1102 4500,1050C4500,998 4476,955 4430,927C4398,907 4378,905 4195,900C4029,896 3991,892 3971,878C3929,848 3910,809 3910,752C3910,659 3958,608 4056,595C4146,583 4200,529 4200,452C4200,398 4176,356 4130,327L4095,305L3390,305C2769,305 2674,307 2590,322C2538,332 2341,390 2153,452L1810,564L1810,2407L1874,2424C2209,2515 2542,2831 2764,3268C2846,3430 2890,3552 2942,3750L2983,3909L3029,3904C3054,3901 3103,3885 3137,3869ZM1428,2675C1446,2664 1471,2639 1483,2620L1505,2585L1505,415L1483,380C1471,361 1446,336 1428,325C1397,306 1374,305 1003,302L610,299L610,2701L1003,2698C1374,2695 1397,2694 1428,2675Z" style="fill:rgb(93,113,26);fill-rule:nonzero;"/>
        </g>
        <g transform="matrix(0.976655,0,0,0.976655,-0.603185,119.525)">
            <path d="M976,881C930,850 910,812 910,750C910,655 965,600 1060,600C1155,600 1210,655 1210,750C1210,845 1155,900 1060,900C1023,900 996,894 976,881Z" style="fill:rgb(93,113,26);fill-rule:nonzero;"/>
        </g>
    </g>
</svg>
